<svg width="31" height="40" viewBox="0 0 31 40" fill="none" xmlns="http://www.w3.org/2000/svg">
<path d="M1.20134 6.18188C10.6759 6.18188 20.0166 6.18188 29.4693 6.18188C29.4693 7.1952 29.4731 8.18847 29.4629 9.18174C29.4621 9.27413 29.3941 9.39208 29.3203 9.45367C28.3715 10.2456 28.379 11.3092 28.3819 12.4216C28.4034 20.3892 28.3477 28.3572 28.4232 36.3243C28.4441 38.5328 26.9912 39.9839 24.8644 39.9886C18.5114 40.0034 12.1587 40.0054 5.80572 39.9851C3.5978 39.9781 2.23732 38.4477 2.25591 36.31C2.32767 28.0519 2.296 19.7925 2.26056 11.534C2.25824 10.9757 2.02495 10.331 1.68854 9.88508C1.32307 9.40079 1.1659 8.95572 1.19321 8.37498C1.22691 7.66816 1.20134 6.95843 1.20134 6.18188ZM10.5124 32.8785C10.5124 26.2068 10.5124 19.5825 10.5124 12.9213C9.6838 12.9213 8.90522 12.9213 8.08626 12.9213C8.08626 19.5918 8.08626 26.2167 8.08626 32.8785C8.91423 32.8785 9.6931 32.8785 10.5124 32.8785ZM20.9474 12.9186C20.9474 19.6191 20.9474 26.2216 20.9474 32.8483C21.7864 32.8483 22.5806 32.8483 23.3525 32.8483C23.3525 26.1548 23.3525 19.5366 23.3525 12.9186C22.5188 12.9186 21.7602 12.9186 20.9474 12.9186ZM16.5801 32.8703C16.5801 26.2144 16.5801 19.586 16.5801 12.9346C15.7541 12.9346 14.9793 12.9346 14.1609 12.9346C14.1609 19.6008 14.1609 26.2083 14.1609 32.8703C14.9816 32.8703 15.7591 32.8703 16.5801 32.8703Z" fill="#FF0060"/>
<path d="M0 5.42451C0 4.79206 0 4.22265 0 3.54779C0.324215 3.54779 0.607758 3.54779 0.891591 3.54779C2.98359 3.54779 5.07588 3.56028 7.16759 3.53035C7.41889 3.52687 7.81834 3.34994 7.89301 3.15501C8.65416 1.17399 10.1259 0.134523 12.1825 0.0563743C14.4011 -0.0278751 16.6317 -0.0229363 18.8475 0.106924C20.7192 0.216739 22.0568 1.2594 22.7058 3.05188C22.8746 3.51786 23.1535 3.54837 23.5454 3.54691C25.5581 3.53849 27.5705 3.54314 29.5832 3.54343C29.9242 3.54343 30.2653 3.54343 30.6656 3.54343C30.6656 4.19621 30.6656 4.78364 30.6656 5.42422C20.4404 5.42451 10.238 5.42451 0 5.42451ZM10.4969 3.48678C13.7591 3.48678 16.9062 3.48678 20.1594 3.48678C19.7507 2.73202 19.1659 2.39618 18.4585 2.38398C16.3967 2.34883 14.3334 2.35348 12.2714 2.37875C11.5465 2.38776 10.9571 2.72737 10.4969 3.48678Z" fill="#FF0060"/>
</svg>
