<svg width="40" height="40" viewBox="0 0 40 40" fill="none" xmlns="http://www.w3.org/2000/svg">
<path d="M20.0165 36.3501C23.0181 36.3501 26.0198 36.3515 29.0214 36.3495C30.0802 36.3486 31.1408 36.3783 32.197 36.3262C34.3332 36.2207 36.1904 34.3731 36.3206 32.241C36.3699 31.435 36.3544 30.6246 36.355 29.816C36.3582 26.4558 36.3605 23.0959 36.3509 19.7357C36.3498 19.3398 36.4631 19.0343 36.752 18.7599C37.3261 18.2146 37.8816 17.6495 38.4365 17.0844C38.987 16.5237 39.8685 16.9583 39.9567 17.4549C39.9713 17.5365 39.9844 17.6195 39.9844 17.7019C39.985 22.4711 40.017 27.2405 39.9719 32.0094C39.943 35.0472 38.4455 37.2924 35.9228 38.8863C34.7014 39.6579 33.3368 39.9838 31.9007 39.9853C25.6059 39.9914 19.311 39.9879 13.0161 39.9876C11.3902 39.9876 9.76423 39.9786 8.13859 39.9885C4.04725 40.0132 1.22328 37.0104 0.391671 34.3644C0.137382 33.5549 0.00514039 32.7268 0.00514039 31.8804C0.00310142 23.9013 -0.00942363 15.9222 0.0141702 7.94315C0.0208696 5.72708 0.913647 3.85618 2.5023 2.31472C4.10696 0.757528 6.02797 0.00718732 8.26151 0.0103914C13.3056 0.0173822 18.35 0.0115565 23.3942 0.0112653C23.4941 0.0112653 23.5951 0.00573093 23.6942 0.0159258C23.977 0.0453452 24.1285 0.211958 24.1285 0.496249C24.1285 0.892683 23.9563 1.23232 23.705 1.51369C23.2779 1.99198 22.8084 2.4321 22.3767 2.90602C22.0347 3.28148 21.6112 3.49149 21.1286 3.58791C20.8856 3.63655 20.6322 3.65053 20.3835 3.65083C16.3315 3.65461 12.2792 3.64646 8.22714 3.65636C6.22516 3.66131 4.84187 4.65283 3.98812 6.42382C3.72014 6.97959 3.64121 7.58516 3.6415 8.20006C3.64295 11.1679 3.64499 14.1361 3.64499 17.1039C3.64499 20.1053 3.64208 23.1067 3.64179 26.108C3.6415 28.0421 3.63334 29.9765 3.64761 31.9107C3.66567 34.3347 5.6627 36.3343 8.08616 36.344C11.4292 36.3571 14.7725 36.3475 18.1159 36.3477C18.7494 36.3477 19.3832 36.3477 20.0168 36.3477C20.0165 36.3489 20.0165 36.3495 20.0165 36.3501Z" fill="#00DFA2"/>
<path d="M9.53089 30.4791C9.52507 30.3687 9.5172 30.2877 9.5172 30.2065C9.51604 27.8386 9.51808 25.4708 9.5105 23.103C9.50992 22.8938 9.57254 22.7488 9.72022 22.6014C14.0976 18.2313 18.4712 13.8571 22.8448 9.48325C24.2712 8.05684 25.6973 6.62957 27.1214 5.20083C27.2093 5.11257 27.2801 5.00742 27.3416 4.9314C29.9241 7.51914 32.4702 10.0699 35.0547 12.6594C34.6589 13.043 34.2179 13.4598 33.7888 13.8886C28.3401 19.3335 22.8923 24.7796 17.4494 30.2303C17.2714 30.4086 17.0978 30.4875 16.8421 30.4867C14.4993 30.4762 12.1565 30.4797 9.81343 30.4791C9.72459 30.4791 9.63546 30.4791 9.53089 30.4791ZM15.1483 20.8275C15.1378 20.8348 15.1081 20.8499 15.0856 20.8723C14.1189 21.8377 13.1509 22.8018 12.1903 23.7732C12.1245 23.8396 12.0875 23.9608 12.084 24.0581C12.0709 24.4158 12.063 24.7752 12.0846 25.1323C12.0927 25.2652 12.1562 25.4227 12.2474 25.518C12.7373 26.0292 13.2433 26.525 13.7452 27.0248C14.0402 27.3187 14.2907 27.7247 14.647 27.8707C15.0119 28.0204 15.4821 27.9272 15.905 27.9126C16.037 27.908 16.198 27.8459 16.2909 27.7545C17.1878 26.8722 18.073 25.9782 18.9608 25.0872C19.0409 25.0068 19.1181 24.9232 19.1784 24.86C17.8245 23.5055 16.4908 22.1709 15.1483 20.8275ZM18.1284 19.1864C18.2481 19.0984 18.4359 18.9933 18.583 18.8468C20.7085 16.7309 22.8285 14.6092 24.9496 12.489C25.8925 11.5467 26.8368 10.6061 27.7768 9.66093C28.1208 9.31489 28.1312 9.02681 27.8283 8.73262C27.5411 8.45357 27.2871 8.47483 26.9419 8.80719C26.8939 8.8535 26.8464 8.9001 26.7992 8.94729C24.0827 11.662 21.3662 14.3765 18.65 17.0918C18.2906 17.451 17.9306 17.8098 17.5799 18.1774C17.4275 18.337 17.3538 18.5337 17.4645 18.7498C17.5848 18.9837 17.7675 19.143 18.1284 19.1864Z" fill="#00DFA2"/>
<path d="M36.7563 10.7779C34.2746 8.29244 31.7335 5.74751 29.1745 3.18482C29.1713 3.19035 29.1845 3.14957 29.2112 3.12278C30.037 2.29903 30.8497 1.4616 31.6947 0.658245C32.5342 -0.140157 33.8901 -0.217638 34.8309 0.455222C35.0727 0.628243 35.2848 0.846413 35.4965 1.05759C36.7537 2.3101 38.0126 3.56057 39.259 4.82386C40.0574 5.63304 40.2228 6.84011 39.6953 7.82318C39.6289 7.94727 39.5602 8.07922 39.4611 8.17534C38.5591 9.05152 37.6502 9.91983 36.7563 10.7779Z" fill="#00DFA2"/>
</svg>
